{"title":"Ceremony 2010 HDPPVRiP Xvid DAYN-D3MT","uid":6315953,"size":666537266,"categoryP":"video","categoryS":"movies","magnet":"?xt=urn:btih:5129d2d7e311ec227f1326baf920512a4f7956f0&amp;dn=Ceremony+2010+HDPPVRiP+Xvid+DAYN-D3MT&amp;tr=udp%3A%2F%2Ftracker.openbittorrent.com%3A80&amp;tr=udp%3A%2F%2Fopen.demonii.com%3A1337&amp;tr=udp%3A%2F%2Ftracker.coppersurfer.tk%3A6969&amp;tr=udp%3A%2F%2Fexodus.desync.com%3A6969","seeders":0,"leechers":0,"uploader":"arihantkatariya","files":2,"time":1302708498,"description":"Ceremony 2010 HDPPVRiP Xvid DAYN-DAYN DOT ORG\n\nInfo:\nFormat                           : AVI\nFormat/Info                      : Audio Video Interleave\nFile size                        : 614 MiB\nDuration                         : 1h 29mn\nOverall bit rate                 : 959 Kbps\nWriting application              : Lavf52.39.1\n\nVideo\nID                               : 0\nFormat                           : AVC\nFormat/Info                      : Advanced Video Codec\nFormat profile                   : &lt;a class=&quot;__cf_email__&quot; href=&quot;/cdn-cgi/l/email-protection&quot; data-cfemail=&quot;4c0e2d3f29202522290c0079627d&quot;&gt;[email&amp;#160;protected]&lt;/a&gt;&lt;script cf-hash='f9e31' type=&quot;text/javascript&quot;&gt;\n/* &lt;![CDATA[ */!function(){try{var t=&quot;currentScript&quot;in document?document.currentScript:function(){for(var t=document.getElementsByTagName(&quot;script&quot;),e=t.length;e--;)if(t[e].getAttribute(&quot;cf-hash&quot;))return t[e]}();if(t&amp;&amp;t.previousSibling){var e,r,n,i,c=t.previousSibling,a=c.getAttribute(&quot;data-cfemail&quot;);if(a){for(e=&quot;&quot;,r=parseInt(a.substr(0,2),16),n=2;a.length-n;n+=2)i=parseInt(a.substr(n,2),16)^r,e+=String.fromCharCode(i);e=document.createTextNode(e),c.parentNode.replaceChild(e,c)}}}catch(u){}}();/* ]]&gt; */&lt;/script&gt;\nFormat settings, CABAC           : No\nFormat settings, ReFrames        : 1 frame\nFormat settings, GOP             : M=1, N=12\nCodec ID                         : H264\nDuration                         : 1h 29mn\nBit rate                         : 850 Kbps\nWidth                            : 640 pixels\nHeight                           : 272 pixels\nDisplay aspect ratio             : 2.35:1\nFrame rate                       : 23.976 fps\nColor space                      : YUV\nChroma subsampling               : 4:2:0\nBit depth                        : 8 bits\nScan type                        : Progressive\nBits/(Pixel*Frame)               : 0.204\nStream size                      : 565 MiB (92%)\nWriting library                  : x264 core 57\n\nAudio\nID                               : 1\nFormat                           : MPEG Audio\nFormat version                   : Version 1\nFormat profile                   : Layer 3\nMode                             : Joint stereo\nCodec ID                         : 55\nCodec ID/Hint                    : MP3\nDuration                         : 1h 29mn\nBit rate mode                    : Constant\nBit rate                         : 64.0 Kbps\nChannel(s)                       : 2 channels\nSampling rate                    : 48.0 KHz\nCompression mode                 : Lossy\nStream size                      : 41.0 MiB (7%)\nAlignment                        : Aligned on interleaves\nInterleave, duration             : 24 ms (0.58 video frame)\nInterleave, preload duration     : 24 ms","torrent":{"xt":"urn:btih:5129d2d7e311ec227f1326baf920512a4f7956f0","amp;dn":"Ceremony+2010+HDPPVRiP+Xvid+DAYN-D3MT","amp;tr":["udp%3A%2F%2Ftracker.openbittorrent.com%3A80","udp%3A%2F%2Fopen.demonii.com%3A1337","udp%3A%2F%2Ftracker.coppersurfer.tk%3A6969","udp%3A%2F%2Fexodus.desync.com%3A6969"],"infoHash":"5129d2d7e311ec227f1326baf920512a4f7956f0","infoHashBuffer":{"type":"Buffer","data":[81,41,210,215,227,17,236,34,127,19,38,186,249,32,81,42,79,121,86,240]},"announce":[],"urlList":[]}}